<?xml version="1.0" encoding="UTF-8" standalone="no"?> <svg id="icons" xmlns="http://www.w3.org/2000/svg" viewBox="0 0 340 340"><title>10_borrow book</title><path d="M19.981,307.076V320.73a4,4,0,0,0,4,4H103.1a4,4,0,0,0,4-4V289.393a9.806,9.806,0,0,1,1.669-5.543c3.266-4.8,11.5-16.922,10.434-32.626h77.584a6.166,6.166,0,0,0,6.248-5.816,6,6,0,0,0-6-6.184H91.317a4.018,4.018,0,0,0-3.763,5.39,58.019,58.019,0,0,1,1.685,33.56l-.012.051a4.585,4.585,0,0,1-8.643.8,10.264,10.264,0,0,1-.771-3.134c6.291-26.022-9.952-44.329-15.2-50.2,9.771-7.656,16.224-14.054,15.094-26.7A16.511,16.511,0,0,0,73.1,187.771,4.3,4.3,0,0,0,68.3,187.6c-5.938,3.654-22.507,14-27.324,18.626a31.259,31.259,0,0,0-9.562,20.563l-1.5,23.044s-8.853-2.22-8.843-13.417l.669-10.258a41.021,41.021,0,0,1,2.983-12.916,9.879,9.879,0,0,0,.707-3.713l.082-19.741a2.53,2.53,0,0,0-4.464-1.642L21,188.2c-5.18,6.146-10.6,17.187-12.344,25.135-2.3,10.474-3.454,17.288-.551,35.535a145.3,145.3,0,0,0,2.813,14.623l.291,1.2c.147.615.293,1.241.442,1.885a109.65,109.65,0,0,0,3.616,12.739A83.423,83.423,0,0,1,19.981,307.076Z"/><path d="M202.854,28.881a13.61,13.61,0,0,0-13.61-13.611H79.981a4.676,4.676,0,0,0-4.676,4.677V148.026a6.166,6.166,0,0,1-5.815,6.249,6,6,0,0,1-6.185-6V22.677a4.661,4.661,0,0,0-6.533-4.293c-10.336,4.7-20.99,15.362-20.99,36.3V173.45l-.129.112v16.314a4.007,4.007,0,0,0,6.325,3.275c6.12-4.346,14.135-9.438,20.931-13.625a14.733,14.733,0,0,1,6.37-2.214,13.888,13.888,0,0,1,9.6,2.67,25.96,25.96,0,0,1,10.487,18.149,38.074,38.074,0,0,1,.009,6.977,3.993,3.993,0,0,0,3.991,4.349h94.989a5.821,5.821,0,0,0,2.162-.408,14.841,14.841,0,0,0,12.336-14.6Z"/><path d="M262.458,179.5H236.205a4,4,0,0,0-4,4v82.173H220.372a4,4,0,0,0-3.292,6.271l28.959,41.973a4,4,0,0,0,6.584,0l28.959-41.973a4,4,0,0,0-3.292-6.271H266.458V183.5A4,4,0,0,0,262.458,179.5Z"/><path d="M300.664,112.032a4,4,0,0,0-3.292,1.729l-28.959,41.973a4,4,0,0,0,3.292,6.272h11.832v82.172a4,4,0,0,0,4,4h26.254a4,4,0,0,0,4-4V162.006h11.832a4,4,0,0,0,3.292-6.272l-28.959-41.973A4,4,0,0,0,300.664,112.032Z"/><path d="M191.449,218.341H98.605a6,6,0,0,0,0,12h96.179a6,6,0,0,0,0-12Z"/></svg>